<svg width="400" height="400" viewBox="0 0 400 400" fill="none" xmlns="http://www.w3.org/2000/svg">
<rect width="400" height="400" fill="#1E4785"/>
<path d="M281.508 59.896C285.391 59.896 288.676 60.5573 291.364 61.88C294.052 63.16 296.1 64.9947 297.508 67.384C298.916 69.7307 299.62 72.5253 299.62 75.768C299.62 77.688 299.322 79.6293 298.724 81.592C298.17 83.512 297.252 85.2613 295.972 86.84C294.735 88.4187 293.05 89.6987 290.916 90.68C288.826 91.6187 286.244 92.088 283.172 92.088H276.516V107H267.236V59.896H281.508ZM283.108 83.064C284.516 83.064 285.69 82.8293 286.628 82.36C287.567 81.848 288.292 81.2293 288.804 80.504C289.359 79.736 289.743 78.9467 289.956 78.136C290.212 77.3253 290.34 76.6213 290.34 76.024C290.34 75.5547 290.255 74.936 290.084 74.168C289.956 73.3573 289.658 72.5467 289.188 71.736C288.719 70.9253 287.994 70.2427 287.012 69.688C286.074 69.1333 284.794 68.856 283.172 68.856H276.516V83.064H283.108Z" fill="white"/>
<g filter="url(#filter0_d_219_398)">
<mask id="path-3-outside-1_219_398" maskUnits="userSpaceOnUse" x="100" y="97" width="185" height="245" fill="black">
<rect fill="white" x="100" y="97" width="185" height="245"/>
<path d="M102.733 339V100.455H196.847C214.939 100.455 230.353 103.91 243.088 110.821C255.823 117.654 265.529 127.167 272.207 139.358C278.963 151.472 282.341 165.449 282.341 181.29C282.341 197.131 278.924 211.108 272.091 223.222C265.258 235.335 255.357 244.77 242.389 251.526C229.499 258.281 213.891 261.659 195.565 261.659H135.58V221.241H187.412C197.118 221.241 205.116 219.572 211.406 216.233C217.774 212.816 222.51 208.118 225.616 202.139C228.8 196.082 230.392 189.133 230.392 181.29C230.392 173.369 228.8 166.458 225.616 160.557C222.51 154.578 217.774 149.957 211.406 146.696C205.039 143.357 196.963 141.688 187.179 141.688H153.168V339H102.733Z"/>
</mask>
<path d="M102.733 339V100.455H196.847C214.939 100.455 230.353 103.91 243.088 110.821C255.823 117.654 265.529 127.167 272.207 139.358C278.963 151.472 282.341 165.449 282.341 181.29C282.341 197.131 278.924 211.108 272.091 223.222C265.258 235.335 255.357 244.77 242.389 251.526C229.499 258.281 213.891 261.659 195.565 261.659H135.58V221.241H187.412C197.118 221.241 205.116 219.572 211.406 216.233C217.774 212.816 222.51 208.118 225.616 202.139C228.8 196.082 230.392 189.133 230.392 181.29C230.392 173.369 228.8 166.458 225.616 160.557C222.51 154.578 217.774 149.957 211.406 146.696C205.039 143.357 196.963 141.688 187.179 141.688H153.168V339H102.733Z" fill="url(#paint0_linear_219_398)" shape-rendering="crispEdges"/>
<path d="M102.733 339H100.233V341.5H102.733V339ZM102.733 100.455V97.9545H100.233V100.455H102.733ZM243.088 110.821L241.896 113.018L241.906 113.024L243.088 110.821ZM272.207 139.358L270.015 140.559L270.019 140.567L270.024 140.576L272.207 139.358ZM242.389 251.526L241.234 249.308L241.229 249.311L242.389 251.526ZM135.58 261.659H133.08V264.159H135.58V261.659ZM135.58 221.241V218.741H133.08V221.241H135.58ZM211.406 216.233L212.578 218.441L212.588 218.436L211.406 216.233ZM225.616 202.139L223.404 200.976L223.398 200.987L225.616 202.139ZM225.616 160.557L223.398 161.709L223.407 161.727L223.416 161.744L225.616 160.557ZM211.406 146.696L210.245 148.91L210.256 148.916L210.267 148.921L211.406 146.696ZM153.168 141.688V139.188H150.668V141.688H153.168ZM153.168 339V341.5H155.668V339H153.168ZM105.233 339V100.455H100.233V339H105.233ZM102.733 102.955H196.847V97.9545H102.733V102.955ZM196.847 102.955C214.625 102.955 229.607 106.349 241.896 113.018L244.281 108.624C231.099 101.471 215.254 97.9545 196.847 97.9545V102.955ZM241.906 113.024C254.232 119.638 263.579 128.81 270.015 140.559L274.4 138.157C267.48 125.523 257.414 115.671 244.27 108.618L241.906 113.024ZM270.024 140.576C276.544 152.267 279.841 165.814 279.841 181.29H284.841C284.841 165.084 281.382 150.676 274.391 138.14L270.024 140.576ZM279.841 181.29C279.841 196.761 276.507 210.304 269.913 221.993L274.268 224.45C281.341 211.912 284.841 197.5 284.841 181.29H279.841ZM269.913 221.993C263.331 233.663 253.796 242.764 241.234 249.308L243.544 253.743C256.918 246.775 267.185 237.007 274.268 224.45L269.913 221.993ZM241.229 249.311C228.778 255.837 213.589 259.159 195.565 259.159V264.159C214.193 264.159 230.221 260.726 243.55 253.74L241.229 249.311ZM195.565 259.159H135.58V264.159H195.565V259.159ZM138.08 261.659V221.241H133.08V261.659H138.08ZM135.58 223.741H187.412V218.741H135.58V223.741ZM187.412 223.741C197.386 223.741 205.821 222.029 212.578 218.441L210.234 214.025C204.412 217.115 196.851 218.741 187.412 218.741V223.741ZM212.588 218.436C219.365 214.799 224.48 209.75 227.835 203.292L223.398 200.987C220.541 206.487 216.182 210.833 210.224 214.03L212.588 218.436ZM227.829 203.302C231.228 196.838 232.892 189.478 232.892 181.29H227.892C227.892 188.787 226.373 195.327 223.404 200.976L227.829 203.302ZM232.892 181.29C232.892 173.03 231.23 165.697 227.817 159.37L223.416 161.744C226.37 167.22 227.892 173.709 227.892 181.29H232.892ZM227.835 159.404C224.474 152.935 219.345 147.954 212.546 144.471L210.267 148.921C216.202 151.961 220.547 156.22 223.398 161.709L227.835 159.404ZM212.567 144.482C205.736 140.9 197.229 139.188 187.179 139.188V144.188C196.698 144.188 204.342 145.814 210.245 148.91L212.567 144.482ZM187.179 139.188H153.168V144.188H187.179V139.188ZM150.668 141.688V339H155.668V141.688H150.668ZM153.168 336.5H102.733V341.5H153.168V336.5Z" fill="url(#paint1_linear_219_398)" mask="url(#path-3-outside-1_219_398)"/>
</g>
<defs>
<filter id="filter0_d_219_398" x="86.733" y="100.455" width="195.608" height="254.545" filterUnits="userSpaceOnUse" color-interpolation-filters="sRGB">
<feFlood flood-opacity="0" result="BackgroundImageFix"/>
<feColorMatrix in="SourceAlpha" type="matrix" values="0 0 0 0 0 0 0 0 0 0 0 0 0 0 0 0 0 0 127 0" result="hardAlpha"/>
<feOffset dx="-8" dy="8"/>
<feGaussianBlur stdDeviation="4"/>
<feComposite in2="hardAlpha" operator="out"/>
<feColorMatrix type="matrix" values="0 0 0 0 0 0 0 0 0 0 0 0 0 0 0 0 0 0 0.5 0"/>
<feBlend mode="normal" in2="BackgroundImageFix" result="effect1_dropShadow_219_398"/>
<feBlend mode="normal" in="SourceGraphic" in2="effect1_dropShadow_219_398" result="shape"/>
</filter>
<linearGradient id="paint0_linear_219_398" x1="279.5" y1="123" x2="182.486" y2="76.0766" gradientUnits="userSpaceOnUse">
<stop stop-color="#F9F2AD"/>
<stop offset="0.557142" stop-color="#F1C661"/>
<stop offset="1" stop-color="#FDC833"/>
</linearGradient>
<linearGradient id="paint1_linear_219_398" x1="91.5" y1="101" x2="302" y2="343" gradientUnits="userSpaceOnUse">
<stop/>
<stop offset="1" stop-opacity="0.5"/>
</linearGradient>
</defs>
</svg>
